<?xml version="1.0" encoding="UTF-8"?> <svg xmlns="http://www.w3.org/2000/svg" xmlns:xlink="http://www.w3.org/1999/xlink" id="Layer_2" data-name="Layer 2" viewBox="0 0 16.33 56.22"><defs><style> .cls-1 { fill: none; } .cls-2 { clip-path: url(#clippath); } .cls-3 { fill: #323032; } .cls-4 { fill: #302e2f; } .cls-5 { fill: #333233; } .cls-6 { fill: #242122; } .cls-7 { fill: #231f20; } .cls-8 { fill: #403f41; } .cls-9 { fill: #414042; } .cls-10 { fill: #363436; } .cls-11 { fill: #373637; } .cls-12 { fill: #3e3d3f; } .cls-13 { fill: #3f3e40; } .cls-14 { fill: #292728; } .cls-15 { fill: #2b2829; } .cls-16 { fill: #2c292b; } .cls-17 { fill: #2d2b2c; } .cls-18 { fill: #3b3b3c; } .cls-19 { fill: #383738; } .cls-20 { fill: #3a393b; } .cls-21 { fill: #353334; } .cls-22 { fill: #3d3c3d; } .cls-23 { fill: #272425; } .cls-24 { fill: #39383a; } .cls-25 { fill: #2f2c2d; } .cls-26 { fill: #312f30; } .cls-27 { fill: #282526; } .cls-28 { fill: #262223; } </style><clipPath id="clippath"><path class="cls-1" d="M16.33,30.1c0,14.42-3.61,26.12-8.07,26.12S.19,44.52,.19,30.1,3.81,3.98,8.26,3.98s8.07,11.69,8.07,26.12Z"></path></clipPath></defs><g id="Eye"><g class="cls-2"><rect class="cls-7" x=".19" y="3.98" width="16.14" height="52.23"></rect><path class="cls-7" d="M6.86,0c4.21-.16,7.99,9.51,8.45,21.6,.45,12.09-2.6,22.01-6.82,22.16C4.28,43.92,.5,34.25,.04,22.17-.41,10.08,2.65,.16,6.86,0Z"></path><path class="cls-6" d="M6.9,.85c4.05-.15,7.69,9.14,8.12,20.77,.43,11.62-2.5,21.16-6.55,21.31-4.05,.15-7.69-9.15-8.12-20.77C-.09,10.54,2.84,.99,6.9,.85Z"></path><path class="cls-28" d="M6.93,1.69c3.89-.14,7.38,8.78,7.79,19.94,.42,11.15-2.4,20.31-6.29,20.46-3.89,.14-7.38-8.78-7.79-19.93C.22,10.99,3.04,1.83,6.93,1.69Z"></path><path class="cls-23" d="M6.96,2.53c3.73-.14,7.07,8.41,7.47,19.1,.4,10.69-2.3,19.47-6.03,19.61-3.73,.14-7.07-8.41-7.47-19.11C.53,11.44,3.23,2.67,6.96,2.53Z"></path><path class="cls-27" d="M6.99,3.37c3.56-.13,6.77,8.05,7.14,18.27s-2.2,18.62-5.77,18.76c-3.56,.13-6.77-8.05-7.14-18.28C.84,11.9,3.42,3.5,6.99,3.37Z"></path><path class="cls-14" d="M7.02,4.21c3.4-.13,6.46,7.68,6.82,17.44s-2.1,17.78-5.51,17.9c-3.4,.12-6.46-7.68-6.82-17.45C1.15,12.35,3.61,4.34,7.02,4.21Z"></path><path class="cls-15" d="M7.05,5.05c3.24-.12,6.15,7.32,6.5,16.61,.34,9.3-2,16.93-5.25,17.05-3.24,.12-6.15-7.32-6.5-16.61C1.46,12.81,3.81,5.17,7.05,5.05Z"></path><path class="cls-16" d="M7.08,5.89c3.08-.11,5.84,6.95,6.17,15.79,.33,8.83-1.9,16.08-4.98,16.2-3.08,.11-5.84-6.95-6.17-15.78C1.77,13.26,4,6.01,7.08,5.89Z"></path><path class="cls-17" d="M7.11,6.74c2.92-.11,5.54,6.59,5.84,14.95,.31,8.37-1.8,15.24-4.72,15.35-2.92,.11-5.54-6.59-5.84-14.95-.31-8.37,1.8-15.23,4.72-15.34Z"></path><path class="cls-25" d="M7.15,7.58c2.75-.1,5.23,6.22,5.52,14.12,.3,7.9-1.7,14.39-4.46,14.49-2.75,.1-5.23-6.22-5.52-14.12-.3-7.9,1.7-14.39,4.46-14.49Z"></path><path class="cls-4" d="M7.18,8.42c2.59-.1,4.92,5.85,5.2,13.29,.28,7.44-1.6,13.54-4.2,13.64-2.59,.1-4.92-5.86-5.2-13.29-.28-7.43,1.6-13.54,4.2-13.64Z"></path><path class="cls-26" d="M7.21,9.26c2.43-.09,4.61,5.49,4.87,12.46,.26,6.97-1.5,12.7-3.93,12.79-2.43,.09-4.61-5.49-4.87-12.46-.26-6.97,1.5-12.7,3.93-12.79Z"></path><path class="cls-3" d="M7.24,10.1c2.27-.09,4.3,5.12,4.55,11.63,.24,6.5-1.4,11.85-3.67,11.93-2.27,.09-4.3-5.12-4.55-11.63s1.4-11.85,3.67-11.93Z"></path><path class="cls-5" d="M7.27,10.94c2.11-.08,4,4.76,4.22,10.8,.22,6.04-1.3,11-3.41,11.08-2.11,.08-4-4.75-4.22-10.8-.22-6.04,1.3-11,3.41-11.08Z"></path><path class="cls-21" d="M7.3,11.78c1.95-.07,3.69,4.39,3.9,9.97,.21,5.58-1.2,10.16-3.15,10.23-1.95,.07-3.69-4.39-3.9-9.97-.21-5.57,1.2-10.16,3.15-10.23Z"></path><path class="cls-10" d="M7.33,12.63c1.78-.07,3.38,4.02,3.57,9.14,.19,5.11-1.1,9.31-2.88,9.38-1.78,.07-3.38-4.03-3.57-9.14-.19-5.11,1.1-9.31,2.88-9.38Z"></path><path class="cls-11" d="M7.36,13.47c1.62-.06,3.07,3.66,3.25,8.31,.18,4.65-1,8.46-2.62,8.52-1.62,.06-3.07-3.66-3.25-8.3-.18-4.65,1-8.46,2.62-8.53Z"></path><path class="cls-19" d="M7.4,14.31c1.46-.05,2.77,3.29,2.92,7.48,.16,4.18-.9,7.62-2.36,7.67-1.46,.05-2.77-3.29-2.92-7.48-.16-4.18,.9-7.62,2.36-7.67Z"></path><path class="cls-24" d="M7.43,15.15c1.3-.05,2.46,2.93,2.6,6.64,.14,3.72-.8,6.77-2.1,6.82-1.3,.05-2.46-2.93-2.6-6.64-.14-3.72,.8-6.77,2.1-6.82Z"></path><path class="cls-20" d="M7.46,15.99c1.13-.04,2.15,2.56,2.27,5.81,.12,3.25-.7,5.93-1.84,5.97-1.13,.04-2.15-2.56-2.27-5.82-.12-3.25,.7-5.93,1.84-5.96Z"></path><path class="cls-18" d="M7.49,16.83c.97-.04,1.84,2.2,1.95,4.98,.1,2.79-.6,5.08-1.57,5.11-.97,.04-1.84-2.2-1.95-4.98-.1-2.79,.6-5.08,1.57-5.11Z"></path><path class="cls-22" d="M7.52,17.67c.81-.03,1.54,1.83,1.62,4.16s-.5,4.23-1.31,4.26c-.81,.03-1.54-1.83-1.62-4.15-.09-2.32,.5-4.23,1.31-4.27Z"></path><path class="cls-12" d="M7.55,18.52c.65-.02,1.23,1.46,1.3,3.32,.07,1.86-.4,3.39-1.05,3.41-.65,.02-1.23-1.46-1.3-3.32-.07-1.86,.4-3.39,1.05-3.41Z"></path><path class="cls-13" d="M7.58,19.36c.48-.02,.92,1.1,.97,2.49,.05,1.39-.3,2.54-.79,2.56-.48,.02-.92-1.1-.97-2.49-.05-1.39,.3-2.54,.79-2.56Z"></path><path class="cls-8" d="M7.61,20.2c.32-.01,.61,.73,.65,1.66,.04,.93-.2,1.7-.52,1.71-.32,.01-.61-.73-.65-1.66s.2-1.69,.52-1.7Z"></path><path class="cls-9" d="M7.65,21.04c.16,0,.31,.37,.32,.83,.02,.46-.1,.85-.26,.85-.16,0-.31-.36-.32-.83-.02-.46,.1-.84,.26-.85Z"></path></g></g></svg> 